<?xml version="1.0" encoding="utf-8"?>
<!-- Generator: Adobe Illustrator 24.3.0, SVG Export Plug-In . SVG Version: 6.00 Build 0)  -->
<svg version="1.1" id="Logo" xmlns="http://www.w3.org/2000/svg" xmlns:xlink="http://www.w3.org/1999/xlink" x="0px" y="0px"
	 viewBox="0 0 366.87 185.88" style="enable-background:new 0 0 366.87 185.88;" xml:space="preserve">
<style type="text/css">
	.st0{fill:#4C4C4C;}
	.st1{fill:#808080;}
</style>
<path d="M152.67,97.23V69.82h11.5v27.8c0,4.55,2.34,7.6,7.99,7.6c5.33,0,7.86-3.25,7.86-7.79v-27.6h11.5v27.41
	c0,10.72-6.43,17.21-19.35,17.21C159.16,114.44,152.67,108.08,152.67,97.23z"/>
<path d="M196.9,80.34h10.2v4.55h0.2c2.47-3.57,5.65-5.52,10.26-5.52c7.27,0,11.56,5.2,11.56,12.6v21.63h-10.59V94.11
	c0-3.51-1.75-5.91-5.2-5.91c-3.51,0-5.84,2.92-5.84,7.01v18.38H196.9V80.34z"/>
<path d="M234.56,67.16h10.59v8.58h-10.59V67.16z M234.56,80.34h10.59v33.25h-10.59V80.34z"/>
<path d="M253.47,104.83V88.92h-4.42v-8.58h4.42V69.82h10.33v10.52h6.04v8.58h-6.04v13.63c0,2.6,1.43,3.25,3.7,3.25
	c0.91,0,1.95-0.07,2.34-0.07v7.73c-0.91,0.26-2.92,0.52-5.78,0.52C257.89,113.99,253.47,111.97,253.47,104.83z"/>
<path d="M276.4,116.32h3.64c3.12,0,4.35-1.23,4.35-3.51c0-1.43-0.65-3.38-2.01-6.88l-9.81-25.59h11.17l4.48,14.16
	c1.04,3.25,2.08,7.66,2.08,7.66h0.13c0,0,0.91-4.42,1.95-7.66l4.35-14.16h10.59l-11.5,33.71c-2.66,7.79-5.85,10.52-12.53,10.52
	h-6.88V116.32z"/>
<path class="st0" d="M130.18,112.24V67.16L91.14,44.62v17.29l15.3,8.83c0.55,0.31,0.57,1.17,0,1.48c0,0-18.18,10.5-18.18,10.5
	c-0.55,0.32-1.2,0.3-1.71,0l-18.18-10.5c-0.56-0.3-0.57-1.18,0-1.48l15.29-8.83l0-17.29L44.62,67.16v45.08l0-0.21v0.21l14.97-8.64
	l0-17.66c-0.01-0.63,0.73-1.08,1.28-0.74l18.18,10.5c0.55,0.32,0.86,0.89,0.86,1.48l0,20.99c0.01,0.63-0.73,1.08-1.28,0.74
	l-15.3-8.83l-14.97,8.64l39.04,22.54l39.04-22.54l-14.97-8.64l-15.3,8.83c-0.54,0.33-1.3-0.1-1.28-0.74c0,0,0-20.99,0-20.99
	c0-0.63,0.35-1.19,0.86-1.48l18.18-10.5c0.54-0.33,1.3,0.09,1.28,0.74v17.66L130.18,112.24z"/>
<path d="M87.4,141.26l39.04-22.54l-14.97-8.64l-15.3,8.83c-0.54,0.33-1.3-0.1-1.28-0.74c0,0,0-20.99,0-20.99
	c0-0.63,0.35-1.19,0.86-1.48l18.18-10.5c0.54-0.33,1.3,0.09,1.28,0.74c0,0,0,17.66,0,17.66l14.97,8.64V67.16L87.4,91.86L87.4,141.26
	z"/>
<path class="st1" d="M91.14,44.62v17.29l15.3,8.83c0.55,0.31,0.57,1.17,0,1.48c0,0-18.18,10.5-18.18,10.5c-0.55,0.32-1.2,0.3-1.71,0
	l-18.18-10.5c-0.56-0.3-0.57-1.18,0-1.48c0,0,15.29-8.83,15.29-8.83l0-17.29L44.62,67.16l42.78,24.7l42.78-24.7L91.14,44.62z"/>
<path class="st0" d="M78.64,118.91l-15.3-8.83l-14.97,8.64l39.04,22.54l0-49.4l-42.78-24.7v45.08l0-0.21v0.21l14.97-8.64l0-17.66
	c-0.01-0.63,0.73-1.08,1.28-0.74c0,0,18.18,10.5,18.18,10.5c0.55,0.32,0.86,0.89,0.86,1.48l0,20.99
	C79.93,118.8,79.19,119.25,78.64,118.91z"/>
<g>
	<path d="M321.91,82.93c-0.22-0.51-0.52-0.96-0.91-1.35c-0.39-0.39-0.84-0.69-1.35-0.91c-0.51-0.22-1.06-0.33-1.65-0.33
		s-1.14,0.11-1.65,0.33c-0.51,0.22-0.96,0.52-1.35,0.91s-0.69,0.84-0.91,1.35c-0.22,0.51-0.33,1.06-0.33,1.65
		c0,0.59,0.11,1.14,0.33,1.65c0.22,0.51,0.52,0.96,0.91,1.35s0.84,0.69,1.35,0.91c0.51,0.22,1.06,0.33,1.65,0.33
		s1.14-0.11,1.65-0.33c0.51-0.22,0.96-0.52,1.35-0.91c0.39-0.39,0.69-0.84,0.91-1.35c0.22-0.51,0.33-1.06,0.33-1.65
		C322.24,83.99,322.13,83.44,321.91,82.93z M320.79,86.2c-0.29,0.49-0.68,0.88-1.17,1.17c-0.49,0.29-1.03,0.43-1.62,0.43
		c-0.59,0-1.13-0.14-1.62-0.43c-0.49-0.29-0.88-0.68-1.17-1.17c-0.29-0.49-0.43-1.03-0.43-1.62c0-0.59,0.14-1.13,0.43-1.62
		c0.29-0.49,0.68-0.88,1.17-1.17c0.49-0.29,1.03-0.43,1.62-0.43c0.59,0,1.13,0.14,1.62,0.43c0.49,0.29,0.88,0.68,1.17,1.17
		c0.29,0.49,0.43,1.03,0.43,1.62C321.22,85.17,321.08,85.71,320.79,86.2z"/>
	<path d="M319.49,84.55c0.14-0.2,0.21-0.44,0.21-0.73c0-0.28-0.07-0.52-0.2-0.7c-0.13-0.19-0.29-0.32-0.48-0.41
		c-0.19-0.09-0.36-0.13-0.52-0.13h-1.98v3.91h0.86v-1.33h0.85l0.69,1.33h0.94l-0.81-1.52C319.22,84.86,319.37,84.73,319.49,84.55z
		 M317.38,83.21h0.82c0.1,0,0.22,0.04,0.36,0.13c0.14,0.09,0.2,0.25,0.2,0.49c0,0.23-0.07,0.41-0.2,0.52
		c-0.14,0.12-0.26,0.17-0.38,0.17h-0.8V83.21z"/>
</g>
</svg>
